<svg xmlns="http://www.w3.org/2000/svg" xmlns:xlink="http://www.w3.org/1999/xlink" width="613.353" height="700.561" xmlns:v="https://vecta.io/nano"><style><![CDATA[.B{fill:#3f3d56}.C{fill:#e6e6e6}.D{fill:#ff6584}.E{fill:#2f2e41}.F{fill:#ffb6b6}]]></style><path d="M294.343 657.212l-.782-17.576q-.122-.065-.244-.129c-8.376-4.395-17.976 3.561-15.3 12.634 2.517 8.537 4.208 17.74 8.816 25.212 5.515 8.791 14.728 14.597 25.038 15.779l10.642 6.516c2.955-16.475-1.452-33.417-12.06-46.364-2.976-3.56-6.389-6.731-10.157-9.437-2.549 6.72-5.954 13.366-5.954 13.366z" fill="#f2f2f2"/><path d="M199.067 478.844c-20.488-21.129-50.178-33.247-81.457-33.247l-1.207.003c-20.603.008-40.838-5.457-58.635-15.835l-1.852-1.079 1.492-1.537c8.076-8.355 14.819-17.902 19.993-28.306-7.44 6.936-17.576 10.211-27.668 8.938-10.662-1.271-20.157-7.352-25.77-16.506C13.031 373.537 0 348.369 0 329.195a116.67 116.67 0 0 1 38.063-86.091 72.65 72.65 0 0 0 24-54.171l-.006-1.453c-.002-13.441 1.64-26.831 4.891-39.873l.33-1.317 1.355.047a111.39 111.39 0 0 0 26.047-2.182 87.92 87.92 0 0 1-23.36-6.213l-1.458-.59.495-1.494c34.101-21.114 111.077-10.18 155.757-112.404C262.342-59.434 390.17 97.036 390.17 187.48c0 9.229-9.133 21.424-2.296 27.524 73.91 65.938 22.913 108.28 6.835 150.885-3.815 10.109 4.457 21.206 4.457 32.142a117.81 117.81 0 0 1-.141 5.693l-.142 2.955-2.464-1.64c-4.875-3.194-9.394-6.9-13.48-11.056 8.585 19.756 7.755 42.339-2.256 61.412-7.746 14.619-15.239 25.085-22.272 31.105-46.769 40.023-116.626 36.667-159.343-7.656z" class="C"/><path d="M322.808 698.78c1.041-.001 1.923-.768 2.07-1.798.089-.625 8.8-63.454.977-146.956-7.225-77.116-30.429-188.191-99.939-279.415-.453-.596-1.19-.905-1.932-.81s-1.378.579-1.666 1.27-.186 1.483.268 2.078c68.91 90.436 91.926 200.696 99.101 277.267 7.778 83.016-.865 145.355-.953 145.975-.085.601.095 1.209.493 1.667s.975.721 1.582.721zm-56.724-299.494a2.09 2.09 0 0 0 1.992-1.446c.28-.863-.026-1.808-.76-2.341-.252-.183-25.681-18.506-63.697-32.425-35.143-12.866-88.582-24.53-143.597-7.02-.714.226-1.253.816-1.413 1.547s.082 1.493.635 1.997 1.334.674 2.047.446c53.888-17.15 106.359-5.679 140.888 6.963 37.473 13.72 62.427 31.7 62.675 31.88.357.26.787.4 1.229.4zm95.812-238.633c.066-.905-.458-1.749-1.298-2.091s-1.805-.104-2.39.589c-.201.238-20.307 24.282-36.928 61.196-15.363 34.125-30.845 86.585-17.343 142.719.27 1.124 1.401 1.816 2.525 1.546s1.816-1.401 1.546-2.525c-13.224-54.983 1.996-106.491 17.091-140.021 16.383-36.388 36.113-59.982 36.311-60.216.285-.337.456-.756.488-1.197z" class="B"/><path d="M359.063 268.597c1.766 14.25 11.641 26 26 26s26-11.641 26-26-11.702-24.672-26-26c-15.171-1.409-28.268 7.704-26 26z" class="E"/><path d="M397.105 687.328l9.901-.001 4.71-38.19-14.613.001.002 38.19z" class="F"/><use xlink:href="#B" class="E"/><path d="M358.105 687.328l9.901-.001 4.71-38.19-14.613.001.002 38.19z" class="F"/><g class="E"><use xlink:href="#B" x="-39"/><path d="M431.177 448.137l7 24-8.246 101.645s4.246 6.355 1.246 6.355-6.847 1.409-4.423 5.205-5.86 17.421-5.86 17.421l-11.717 72.374-14.929-.22s-7.59-4.228-3.331-8.504 7.26-4.276 3.26-8.276-4-2.795-4-5.898-4.008-41.016 5.496-55.559l-2.864-59.295-6.745 58.161-13.888 77.591-14.382-.118s-6.643-6.403-6.63-11.142 4.104-5.133 1.058-7.936-3.046-45.866 5.954-69.803c0 0 5.091-13.374-.012-17.957s-.006-9.827-.006-9.827 8.082-2.921-.007-11.339-.044-67.949-.044-67.949-8.843-24.031.113-33.48 72.956 4.551 72.956 4.551z"/></g><path d="M306.503 489.486l12.489-30.182 9.84 5.467-5.943 30.703c1.653 5.402-1.082 11.174-6.309 13.317s-11.226-.049-13.841-5.057-.984-11.183 3.763-14.247zm209.574-238.67l-19.003 26.568-8.345-7.554 12.745-28.558c-.386-5.636 3.585-10.638 9.162-11.541s10.923 2.591 12.335 8.062-1.576 11.115-6.893 13.024z" class="F"/><path d="M433.063 450.597c12.326 19.118-49.631 43.381-73.404 33.64-4.163-1.706-18.482-7.339-8.694-15.15s-1.135-8.91-1.393-13.994c-.173-3.399 2.459-10.856-.287-10.536s-5.96-4.381.02-6.404.064-3.868.117-5.788c.572-20.955 16.65-54.287 16.65-54.287L337.1 452.136s.214 12.812-3.48 8.897-3.426 8.757-3.426 8.757-5.494 3.834-2.335 5.968-3.401 8.694-3.401 8.694l-15.307-1.093s.24-11.371 2.853-13.885 1.33-6.471 1.33-6.471 6.805-6.023 2.243-10.914c-5.867-6.29 15.524-112.53 22.906-111.478a28.12 28.12 0 0 1 20.08-21.452l16.532-4.552 2.936-11.647h23.279l4.055 7.653 17.698 7.987c3.334-4.704 5.825-9.66 19.475-11.267 0 0 36.783-33.467 34.987-36.08s3.906-8.731 3.906-8.731 4.87-1.594 2.122-2.445 2.446-2.818 2.446-2.818 4.81-1.264 2.542-2.928 7.571-2.758 7.571-2.758l12.767 10.417-2.58 4.375s1.573 5.958-.48 3.783-2.44 4.137-2.44 4.137-1.049 6.912-7.267 8.994-10.933 21.867-10.933 21.867c-14.665 19.067-31.971 33.942-52.48 43.733 7.993 9.174.364 101.72.364 101.72z" fill="#f87238"/><circle cx="387.937" cy="273.086" r="23.056" class="F"/><path d="M364.063 275.597c.73 5.01 5 12 4 12s-8.11-20.653-1-22c5.157-.977 6.31-.12 11.13-2.21l-.68.64c3.19 2.32 7.63.89 11.27-.62 3.65-1.5 8.08-2.93 11.28-.62 2.01 1.45 2.86 3.97 4.11 6.11 1.25 2.15 3.56 4.18 5.94 3.52 1.91-.53 3.01-2.67 3-4.65s-2.588-3.864-1.72-5.64c2.573-5.264.259-8.853-5.35-11.33q-3.06-.465-6.12-.95a17.36 17.36 0 0 1 3.84-3.86c-.623-1.598-1.701-2.978-3.1-3.97-1.63-.97-3.65-.9-5.54-.8q-6.33.33-12.65.66c-3.12.16-6.35.35-9.14 1.78-3.48 1.79-5.76 5.28-7.42 8.83-3.72 7.98-3.13 14.4-1.85 23.11z" class="E"/><path d="M268.152 700.254l226.75.307a1.19 1.19 0 1 0 0-2.381l-226.75-.307a1.19 1.19 0 1 0 0 2.381z" fill="#cacaca"/><ellipse cx="471.988" cy="695.094" rx="5.257" ry="7.557" transform="matrix(.143981 -.98958 .98958 .143981 -577.14417 962.36498)" class="C"/><ellipse cx="521.16" cy="690.296" rx="5.257" ry="7.557" transform="matrix(.143981 -.98958 .98958 .143981 -530.30434 1006.91693)" class="B"/><ellipse cx="458.524" cy="655.286" rx="5.257" ry="7.557" transform="matrix(.143981 -.98958 .98958 .143981 -549.27676 914.96411)" class="D"/><ellipse cx="441.313" cy="640.043" rx="4.776" ry="3.322" transform="matrix(.007562 -.999971 .999971 .007562 -495.37215 976.78425)" class="C"/><ellipse cx="434.067" cy="609.671" rx="4.776" ry="3.322" transform="matrix(.007562 -.999971 .999971 .007562 -472.19234 939.39678)" class="B"/><ellipse cx="490.412" cy="663.123" rx="4.776" ry="3.322" transform="matrix(.007562 -.999971 .999971 .007562 -469.72363 1048.78806)" class="C"/><ellipse cx="466.651" cy="674.987" rx="4.776" ry="3.322" transform="matrix(.007562 -.999971 .999971 .007562 -505.16941 1036.80122)" class="D"/><ellipse cx="499.728" cy="696.915" rx="4.776" ry="3.322" transform="matrix(.007562 -.999971 .999971 .007562 -494.26937 1091.63947)" class="B"/><ellipse cx="849.988" cy="541.094" rx="5.257" ry="7.557" transform="matrix(.143981 -.98958 .98958 .143981 -101.17347 1204.59943)" class="C"/><ellipse cx="899.16" cy="536.296" rx="5.257" ry="7.557" transform="matrix(.143981 -.98958 .98958 .143981 -54.33364 1249.15138)" class="B"/><ellipse cx="836.524" cy="501.286" rx="5.257" ry="7.557" transform="matrix(.14398 -.98958 .98958 .14398 -73.30606 1157.19856)" class="D"/><ellipse cx="819.313" cy="486.043" rx="4.776" ry="3.322" transform="matrix(.007562 -.999971 .999971 .007562 33.76519 1201.93792)" class="C"/><ellipse cx="812.067" cy="455.671" rx="4.776" ry="3.322" transform="matrix(.007562 -.999971 .999971 .007562 56.94499 1164.55045)" class="B"/><ellipse cx="868.412" cy="509.123" rx="4.776" ry="3.322" transform="matrix(.007562 -.999971 .999971 .007562 59.41371 1273.94173)" class="C"/><ellipse cx="844.651" cy="520.987" rx="4.776" ry="3.322" transform="matrix(.007562 -.999971 .999971 .007562 23.96793 1261.95489)" class="D"/><ellipse cx="877.728" cy="542.915" rx="4.776" ry="3.322" transform="matrix(.007562 -.999971 .999971 .007562 34.86796 1316.79314)" class="B"/><ellipse cx="666.988" cy="256.094" rx="5.257" ry="7.557" transform="matrix(.143981 -.98958 .98958 .143981 24.20544 779.54069)" fill="#fff"/><ellipse cx="716.16" cy="251.296" rx="5.257" ry="7.557" transform="matrix(.143981 -.98958 .98958 .143981 71.04527 824.09264)" class="B"/><ellipse cx="653.524" cy="216.286" rx="5.257" ry="7.557" transform="matrix(.143981 -.98958 .98958 .143981 52.07285 732.13983)" class="D"/><ellipse cx="636.313" cy="201.043" rx="4.776" ry="3.322" transform="matrix(.007562 -.999971 .999971 .007562 137.1408 736.09819)" class="C"/><ellipse cx="629.067" cy="170.671" rx="4.776" ry="3.322" transform="matrix(.007562 -.999971 .999971 .007562 160.32061 698.71071)" class="B"/><ellipse cx="685.412" cy="224.123" rx="4.776" ry="3.322" transform="matrix(.007562 -.999971 .999971 .007562 162.78933 808.102)" class="C"/><ellipse cx="661.651" cy="235.987" rx="4.776" ry="3.322" transform="matrix(.007562 -.999971 .999971 .007562 127.34354 796.11516)" class="D"/><ellipse cx="694.728" cy="257.915" rx="4.776" ry="3.322" transform="matrix(.007562 -.999971 .999971 .007562 138.24358 850.95341)" class="B"/><defs ><path id="B" d="M396.757 697.656l30.447-.001v-.385c0-6.545-5.306-11.85-11.851-11.851h-.001l-5.562-4.219-10.377 4.22h-2.658z"/></defs></svg>