<svg width="960" height="540" xmlns="http://www.w3.org/2000/svg"><path d="M759.4 78.1c11.8 36-.5 80.1-31.1 103.4-30.6 23.3-79.6 25.9-112.1 2.9-32.6-22.9-48.7-71.4-36-108.7 12.7-37.4 54.2-63.5 92.9-62.6 38.7 1 74.5 29 86.3 65zM1014.8 194.8c10.1 30.2 1.4 67.3-23.3 86-24.6 18.7-65.1 19-89 .6-24-18.3-31.4-55.4-21.2-85.7 10.2-30.3 38-53.8 66.3-54 28.3-.2 57.1 23 67.2 53.1zM184.2 321.2c6.7 20.9-3.6 47.1-23.2 61.6-19.6 14.5-48.6 17.3-67.9 4-19.4-13.4-29.2-42.9-21.5-65.2 7.8-22.3 33.1-37.3 57.6-37.1 24.5.3 48.3 15.8 55 36.7z" fill="#27272a"/></svg>