<svg id="visual" viewBox="0 0 1440 810" width="1440" height="810" xmlns="http://www.w3.org/2000/svg" xmlns:xlink="http://www.w3.org/1999/xlink" version="1.1"><g transform="translate(705.9273837769825 433.960156175149)"><path d="M181.4 -256.1C238.8 -207.9 291.5 -159.9 336.6 -92.5C381.7 -25.1 419.1 61.6 405 139.8C390.9 218.1 325.4 287.8 249.3 318.3C173.2 348.7 86.6 339.9 9.6 326.6C-67.4 313.4 -134.8 295.9 -191.2 259C-247.7 222.2 -293.1 166.1 -327.6 97.6C-362 29 -385.5 -51.9 -378.7 -138.5C-371.8 -225.1 -334.7 -317.3 -266.5 -362C-198.4 -406.7 -99.2 -403.9 -18.6 -378.3C62 -352.7 124 -304.3 181.4 -256.1" fill="#27272a"></path></g></svg>