<svg id="visual" viewBox="0 0 1440 810" width="1440" height="810" xmlns="http://www.w3.org/2000/svg" xmlns:xlink="http://www.w3.org/1999/xlink" version="1.1"><g transform="translate(817.6541223878 354.3139063140849)"><path d="M273.2 -319.8C328.6 -279 330.8 -168.8 329.2 -73.5C327.6 21.9 322.3 102.4 296.6 194.1C270.9 285.8 224.9 388.6 147.7 425.2C70.5 461.7 -38 431.9 -144 394C-250 356.1 -353.6 310.1 -429 225.4C-504.3 140.8 -551.3 17.7 -508.7 -66.4C-466.1 -150.5 -334 -195.5 -234.3 -228.6C-134.6 -261.6 -67.3 -282.7 20.8 -307.5C108.8 -332.2 217.7 -360.7 273.2 -319.8" fill="#27272a"></path></g></svg>