<svg id="visual" viewBox="0 0 960 540" width="960" height="540" xmlns="http://www.w3.org/2000/svg" xmlns:xlink="http://www.w3.org/1999/xlink" version="1.1"><g><g transform="translate(251 306)"><path d="M85.7 -26.1C97.7 9.3 85 54.4 53.6 78.3C22.2 102.1 -27.9 104.7 -58 82.3C-88.1 59.8 -98.2 12.3 -85.2 -24.4C-72.2 -61.1 -36.1 -87 0.3 -87.1C36.8 -87.2 73.6 -61.5 85.7 -26.1Z" fill="#27272a"></path></g><g transform="translate(594 382)"><path d="M73.8 -22.5C84.5 8.8 74.2 48.4 49.5 65.8C24.8 83.2 -14.3 78.3 -41.7 58.2C-69.1 38.1 -84.7 2.8 -75.8 -26.2C-66.9 -55.1 -33.5 -77.5 -0.9 -77.2C31.6 -76.9 63.2 -53.8 73.8 -22.5Z" fill="#27272a"></path></g><g transform="translate(774 154)"><path d="M85.9 -27C97.3 7.2 82.8 50.7 53.9 71C24.9 91.3 -18.6 88.4 -48.8 66.6C-79.1 44.8 -96 4.1 -85.6 -28.7C-75.3 -61.5 -37.6 -86.3 -0.2 -86.2C37.2 -86.1 74.4 -61.2 85.9 -27Z" fill="#27272a"></path></g></g></svg>