<svg id="visual" viewBox="0 0 960 540" width="960" height="540" xmlns="http://www.w3.org/2000/svg" xmlns:xlink="http://www.w3.org/1999/xlink" version="1.1"><g><g transform="translate(676 105)"><path d="M83.4 -26.9C95.2 9.1 82.9 53.2 52.3 76.5C21.7 99.8 -27.3 102.4 -59.8 79.4C-92.4 56.5 -108.5 8 -95.8 -29.3C-83.1 -66.7 -41.6 -92.8 -2.9 -91.9C35.8 -90.9 71.6 -62.9 83.4 -26.9Z" fill="#27272a"></path></g><g transform="translate(947 216)"><path d="M67.8 -21.2C77.9 9 69.2 46.1 44.5 64.8C19.9 83.5 -20.6 83.8 -44.5 65.4C-68.5 47.1 -75.9 10 -65.7 -20.3C-55.5 -50.6 -27.7 -74.1 0.6 -74.3C28.9 -74.5 57.7 -51.3 67.8 -21.2Z" fill="#27272a"></path></g><g transform="translate(130 339)"><path d="M54.2 -17.8C60.9 3.1 50.6 29.3 31 43.8C11.4 58.3 -17.6 61.1 -36.9 47.8C-56.3 34.4 -66.1 4.9 -58.4 -17.4C-50.6 -39.7 -25.3 -54.7 -0.8 -54.5C23.7 -54.2 47.5 -38.7 54.2 -17.8Z" fill="#27272a"></path></g></g></svg>