<svg id="visual" viewBox="0 0 1440 810" width="1440" height="810" xmlns="http://www.w3.org/2000/svg" xmlns:xlink="http://www.w3.org/1999/xlink" version="1.1"><path d="M0 568L34.3 561.7C68.7 555.3 137.3 542.7 205.8 549C274.3 555.3 342.7 580.7 411.2 577.7C479.7 574.7 548.3 543.3 617 523.2C685.7 503 754.3 494 823 503.7C891.7 513.3 960.3 541.7 1028.8 556.5C1097.3 571.3 1165.7 572.7 1234.2 564.7C1302.7 556.7 1371.3 539.3 1405.7 530.7L1440 522L1440 811L1405.7 811C1371.3 811 1302.7 811 1234.2 811C1165.7 811 1097.3 811 1028.8 811C960.3 811 891.7 811 823 811C754.3 811 685.7 811 617 811C548.3 811 479.7 811 411.2 811C342.7 811 274.3 811 205.8 811C137.3 811 68.7 811 34.3 811L0 811Z" fill="#85d2f8"></path><path d="M0 542L34.3 554.5C68.7 567 137.3 592 205.8 594.2C274.3 596.3 342.7 575.7 411.2 576.3C479.7 577 548.3 599 617 614C685.7 629 754.3 637 823 627.3C891.7 617.7 960.3 590.3 1028.8 578.7C1097.3 567 1165.7 571 1234.2 570.8C1302.7 570.7 1371.3 566.3 1405.7 564.2L1440 562L1440 811L1405.7 811C1371.3 811 1302.7 811 1234.2 811C1165.7 811 1097.3 811 1028.8 811C960.3 811 891.7 811 823 811C754.3 811 685.7 811 617 811C548.3 811 479.7 811 411.2 811C342.7 811 274.3 811 205.8 811C137.3 811 68.7 811 34.3 811L0 811Z" fill="#64c8f8"></path><path d="M0 608L34.3 619.8C68.7 631.7 137.3 655.3 205.8 662.5C274.3 669.7 342.7 660.3 411.2 651C479.7 641.7 548.3 632.3 617 624.5C685.7 616.7 754.3 610.3 823 615C891.7 619.7 960.3 635.3 1028.8 635.5C1097.3 635.7 1165.7 620.3 1234.2 615C1302.7 609.7 1371.3 614.3 1405.7 616.7L1440 619L1440 811L1405.7 811C1371.3 811 1302.7 811 1234.2 811C1165.7 811 1097.3 811 1028.8 811C960.3 811 891.7 811 823 811C754.3 811 685.7 811 617 811C548.3 811 479.7 811 411.2 811C342.7 811 274.3 811 205.8 811C137.3 811 68.7 811 34.3 811L0 811Z" fill="#38bdf8"></path><path d="M0 732L34.3 722C68.7 712 137.3 692 205.8 689.2C274.3 686.3 342.7 700.7 411.2 704.8C479.7 709 548.3 703 617 692.3C685.7 681.7 754.3 666.3 823 665.7C891.7 665 960.3 679 1028.8 692.5C1097.3 706 1165.7 719 1234.2 722C1302.7 725 1371.3 718 1405.7 714.5L1440 711L1440 811L1405.7 811C1371.3 811 1302.7 811 1234.2 811C1165.7 811 1097.3 811 1028.8 811C960.3 811 891.7 811 823 811C754.3 811 685.7 811 617 811C548.3 811 479.7 811 411.2 811C342.7 811 274.3 811 205.8 811C137.3 811 68.7 811 34.3 811L0 811Z" fill="#2ea4d9"></path><path d="M0 738L34.3 735.8C68.7 733.7 137.3 729.3 205.8 735.5C274.3 741.7 342.7 758.3 411.2 759C479.7 759.7 548.3 744.3 617 735.2C685.7 726 754.3 723 823 721C891.7 719 960.3 718 1028.8 718C1097.3 718 1165.7 719 1234.2 728.7C1302.7 738.3 1371.3 756.7 1405.7 765.8L1440 775L1440 811L1405.7 811C1371.3 811 1302.7 811 1234.2 811C1165.7 811 1097.3 811 1028.8 811C960.3 811 891.7 811 823 811C754.3 811 685.7 811 617 811C548.3 811 479.7 811 411.2 811C342.7 811 274.3 811 205.8 811C137.3 811 68.7 811 34.3 811L0 811Z" fill="#258cba"></path></svg>