<svg xmlns="http://www.w3.org/2000/svg" width="207" height="124" fill="#fff" xmlns:v="https://vecta.io/nano"><path d="M48.942 32.632h38.959v3.082H52.513v23.193H85.79v3.082H52.513v25.464h35.794v3.082H48.942V32.632zm42.449 0h4.139l18.343 25.464 18.749-25.464L158.124.287l-41.897 60.485 21.59 29.762h-4.302l-19.642-27.086L94.15 90.534h-4.22l21.752-29.762-20.291-28.14zm47.968 3.082v-3.082h44.397v3.082h-20.453v54.821h-3.571V35.714H139.36zM.203 32.632h4.464l61.557 91.671-25.438-33.769-36.85-53.523-.162 53.523H.203z"/><path d="M183.397 86.523c.738 0 1.277-.563 1.277-1.29s-.539-1.29-1.277-1.29c-.73 0-1.277.563-1.277 1.29s.547 1.29 1.277 1.29zm3.509-3.393c0 2.147 1.555 3.549 3.822 3.549 2.415 0 3.874-1.445 3.874-3.956v-8.837h-1.946v8.829c0 1.394-.704 2.138-1.946 2.138-1.112 0-1.868-.692-1.894-1.722h-1.911zm10.241-.113c.139 2.233 2.006 3.661 4.786 3.661 2.971 0 4.829-1.497 4.829-3.886 0-1.878-1.06-2.917-3.631-3.514l-1.381-.338c-1.633-.381-2.293-.892-2.293-1.783 0-1.125 1.025-1.861 2.562-1.861 1.459 0 2.467.718 2.649 1.87h1.894c-.113-2.103-1.972-3.583-4.517-3.583-2.736 0-4.56 1.48-4.56 3.705 0 1.835 1.034 2.926 3.301 3.454l1.616.39c1.659.39 2.389.961 2.389 1.913 0 1.108-1.147 1.913-2.71 1.913-1.676 0-2.84-.753-3.005-1.939h-1.928z" id=".JS"/></svg>